<?xml version="1.0" standalone="no"?>
<!DOCTYPE svg PUBLIC "-//W3C//DTD SVG 20010904//EN"
 "http://www.w3.org/TR/2001/REC-SVG-20010904/DTD/svg10.dtd">
<svg version="1.0" xmlns="http://www.w3.org/2000/svg"
 width="500.000000pt" height="500.000000pt" viewBox="0 0 500.000000 500.000000"
 preserveAspectRatio="xMidYMid meet">

<g transform="translate(0.000000,500.000000) scale(0.100000,-0.100000)"
fill="#000000" stroke="none">
<path d="M3022 4978 c-15 -15 -16 -50 0 -66 14 -14 94 -16 103 -2 4 6 -13 10
-44 10 -48 0 -51 1 -51 26 0 25 2 26 50 22 30 -2 49 1 47 7 -5 15 -90 18 -105
3z"/>
<path d="M3177 4983 c-15 -14 -5 -18 43 -15 39 3 51 0 56 -13 10 -25 -8 -36
-60 -37 -29 0 -44 -4 -38 -10 5 -5 31 -8 58 -6 48 3 49 4 52 37 2 20 -2 37
-10 42 -16 10 -92 12 -101 2z"/>
<path d="M2910 4955 c-7 -9 -8 -15 -2 -15 5 0 12 7 16 15 3 8 4 15 2 15 -2 0
-9 -7 -16 -15z"/>
<path d="M2960 4948 c0 -9 -6 -19 -12 -21 -10 -4 -10 -6 0 -6 14 -1 28 26 18
36 -3 4 -6 -1 -6 -9z"/>
<path d="M2380 4940 c-9 -6 -10 -10 -3 -10 6 0 15 5 18 10 8 12 4 12 -15 0z"/>
<path d="M2468 4943 c7 -3 16 -2 19 1 4 3 -2 6 -13 5 -11 0 -14 -3 -6 -6z"/>
<path d="M2508 4943 c7 -3 16 -2 19 1 4 3 -2 6 -13 5 -11 0 -14 -3 -6 -6z"/>
<path d="M2598 4943 c7 -3 16 -2 19 1 4 3 -2 6 -13 5 -11 0 -14 -3 -6 -6z"/>
<path d="M2688 4943 c7 -3 16 -2 19 1 4 3 -2 6 -13 5 -11 0 -14 -3 -6 -6z"/>
<path d="M2728 4943 c7 -3 16 -2 19 1 4 3 -2 6 -13 5 -11 0 -14 -3 -6 -6z"/>
<path d="M2818 4943 c7 -3 16 -2 19 1 4 3 -2 6 -13 5 -11 0 -14 -3 -6 -6z"/>
<path d="M3094 4943 c7 -7 108 -5 115 3 2 2 -24 4 -59 4 -35 0 -60 -3 -56 -7z"/>
<path d="M1792 4789 l3 -72 85 0 85 0 5 28 c3 16 3 48 1 72 l-3 43 -89 0 -90
0 3 -71z m168 1 l0 -60 -80 0 -80 0 0 60 0 60 80 0 80 0 0 -60z"/>
<path d="M2430 4435 l0 -415 -74 0 c-64 0 -76 -3 -100 -25 -26 -24 -32 -25
-167 -25 l-139 0 0 56 c0 76 -22 118 -74 144 -23 11 -54 20 -67 20 -14 0 -36
10 -49 22 -20 18 -36 23 -89 23 l-65 1 3 147 3 147 -516 0 -516 0 0 -635 0
-634 38 -10 c52 -14 196 -31 263 -31 31 0 77 -3 103 -6 l46 -7 0 -67 c0 -57 4
-71 25 -96 20 -23 25 -40 25 -85 l0 -56 -84 -5 c-93 -5 -125 -19 -156 -71 -12
-18 -20 -50 -20 -74 0 -32 -6 -48 -25 -67 -22 -22 -25 -34 -25 -95 l0 -71
-257 -2 -258 -3 -3 -407 -2 -408 640 0 640 0 -2 408 -3 407 -192 3 -193 2 0
78 c-1 73 -13 112 -36 112 -5 0 -8 40 -6 90 l3 90 385 0 c363 0 385 -1 403
-19 10 -10 26 -23 35 -28 15 -8 13 -16 -19 -69 -69 -115 -102 -292 -86 -459 9
-96 8 -105 -15 -105 -8 0 -23 -9 -34 -20 -27 -27 -26 -81 4 -255 27 -150 44
-188 89 -193 20 -2 29 -11 33 -30 35 -158 73 -249 123 -296 l31 -30 0 -187 0
-188 -37 -10 c-21 -6 -231 -56 -468 -112 -236 -56 -449 -110 -471 -121 -51
-23 -109 -80 -135 -130 -40 -77 -50 -154 -56 -400 l-6 -238 1593 0 1592 0 -5
238 c-5 246 -16 322 -56 400 -26 50 -84 107 -135 130 -22 11 -234 65 -471 121
-236 56 -447 106 -467 112 l-38 10 0 188 0 187 31 30 c50 47 88 138 123 296 4
19 13 28 33 30 45 5 62 43 89 193 30 175 31 228 3 256 -14 14 -27 18 -41 13
-19 -6 -20 -3 -14 26 3 18 6 52 6 76 l0 44 71 0 c67 0 129 20 129 42 0 4 55 8
123 8 98 0 130 4 164 19 63 29 73 57 73 207 l0 127 46 -7 c50 -6 97 -35 116
-69 8 -13 15 -84 19 -177 l5 -155 2 145 c1 123 -1 151 -17 187 -22 47 -58 70
-126 80 l-45 6 0 68 0 69 210 0 c151 0 210 -3 210 -11 0 -26 36 -38 113 -39
l77 0 0 -93 c0 -105 11 -130 66 -153 41 -17 43 -30 8 -38 -14 -4 -37 -18 -50
-31 l-24 -24 0 -363 c0 -200 4 -368 8 -375 39 -62 410 -80 521 -26 l36 18 3
374 c2 369 2 375 -19 397 -11 12 -32 25 -45 28 -34 9 -30 23 15 45 21 11 41
27 45 36 3 9 6 183 6 386 l0 368 -28 15 c-70 36 -315 49 -439 23 -106 -23
-103 -15 -103 -269 l0 -218 -78 0 c-64 0 -82 -4 -100 -20 -20 -19 -35 -20
-227 -20 -113 0 -205 3 -205 6 0 23 38 77 65 94 27 17 50 20 145 20 128 0 170
14 201 64 16 26 19 52 19 164 0 92 3 132 11 132 26 0 38 36 39 117 l0 82 88 3
87 3 0 625 0 625 -952 3 -953 2 0 -415z m1840 -190 l0 -535 -890 0 -890 0 0
535 0 535 890 0 890 0 0 -535z m-2732 -347 l2 -558 -445 0 -445 0 0 560 0 560
443 -2 442 -3 3 -557z m329 265 c50 -23 73 -66 73 -135 l0 -58 -74 0 c-66 0
-78 3 -102 25 -23 21 -36 25 -94 25 l-67 0 1 53 1 52 67 3 c53 2 70 7 89 26
29 29 59 31 106 9z m73 -255 c0 -59 23 -106 65 -134 15 -10 57 -19 109 -23 64
-5 90 -11 106 -26 47 -42 50 -61 50 -294 l0 -220 -25 -27 c-22 -24 -25 -36
-25 -104 l0 -76 -69 -27 c-54 -21 -86 -27 -147 -27 -71 0 -82 -3 -106 -25
l-27 -25 -386 0 -385 0 0 58 c0 46 5 62 25 86 21 25 25 39 25 97 l0 67 118 7
c140 7 252 21 304 37 l38 11 0 324 0 323 56 0 c53 0 114 23 114 42 0 4 36 8
80 8 l80 0 0 -52z m300 44 c0 -18 51 -37 115 -42 l70 -5 2 -145 c1 -80 2 -151
2 -157 1 -10 87 -13 396 -13 l395 0 0 -125 0 -125 -160 0 c-136 0 -160 -2
-160 -15 0 -13 60 -15 480 -15 420 0 480 2 480 15 0 13 -24 15 -160 15 l-160
0 0 125 0 125 255 0 255 0 0 -84 c0 -75 2 -86 25 -110 24 -26 25 -33 25 -144
0 -98 -3 -122 -20 -149 -30 -50 -53 -57 -197 -63 -129 -5 -132 -6 -162 -34
-17 -16 -35 -44 -42 -63 l-11 -33 -324 0 c-178 0 -324 4 -324 8 0 19 -54 35
-117 37 -47 1 -90 9 -138 27 -87 34 -233 52 -347 45 l-88 -6 0 68 c0 59 -3 72
-24 93 -25 24 -25 25 -28 265 l-3 242 -29 30 c-35 36 -80 51 -157 51 -89 0
-139 54 -139 150 l0 40 145 0 c80 0 145 -3 145 -8z m1070 -327 c0 -11 -12 -15
-50 -15 -38 0 -50 4 -50 15 0 11 12 15 50 15 38 0 50 -4 50 -15z m120 -1 c0
-12 -10 -14 -47 -12 -66 4 -70 28 -4 28 39 0 51 -4 51 -16z m120 0 c0 -12 -10
-14 -47 -12 -66 4 -70 28 -4 28 39 0 51 -4 51 -16z m720 -4 c0 -5 -18 -10 -40
-10 -22 0 -40 5 -40 10 0 6 18 10 40 10 22 0 40 -4 40 -10z m380 -210 c0 -6
-30 -10 -69 -10 -39 0 -73 5 -76 10 -4 6 22 10 69 10 44 0 76 -4 76 -10z m180
-380 l0 -340 -250 0 -250 0 0 340 0 340 250 0 250 0 0 -340z m-3835 255 c0
-11 -119 -20 -142 -11 -8 3 -11 11 -8 16 8 14 150 9 150 -5z m170 0 c0 -5 -33
-11 -72 -13 -61 -2 -73 0 -73 13 0 13 12 15 73 13 39 -2 72 -7 72 -13z m173 3
c-3 -9 -30 -14 -76 -16 -60 -2 -72 0 -72 13 0 12 14 15 76 15 56 0 75 -3 72
-12z m2332 -458 l0 -70 -220 0 c-207 0 -222 1 -242 20 -18 17 -36 20 -102 20
-60 0 -84 4 -98 17 -22 20 -23 42 -3 49 8 4 15 12 15 20 0 12 54 14 325 14
l325 0 0 -70z m-2590 -30 c0 -49 -4 -90 -8 -90 -21 0 -42 -61 -42 -124 l0 -66
-75 0 -75 0 0 73 c-1 72 -14 107 -40 107 -9 0 -11 15 -8 55 8 93 63 134 181
135 l67 0 0 -90z m1150 41 c0 -29 18 -35 22 -9 4 30 33 30 33 1 1 -31 12 -39
20 -14 10 31 39 27 33 -4 -6 -28 3 -32 22 -10 20 25 33 17 27 -15 -6 -29 5
-41 18 -20 9 14 35 13 35 -2 0 -6 -7 -20 -17 -30 -17 -19 -8 -24 17 -8 9 6 19
5 28 -2 11 -10 9 -15 -10 -30 l-23 -18 33 0 c38 0 41 -11 10 -33 l-23 -16 28
0 c15 -1 27 -5 27 -11 0 -5 10 -10 23 -10 l22 0 -24 13 c-26 13 -26 32 2 31
21 -1 23 12 2 20 -25 9 -17 26 13 26 25 1 26 2 8 15 -22 17 -12 38 16 29 17
-5 18 -3 9 14 -13 24 4 41 22 23 18 -18 29 -13 17 8 -14 28 6 38 31 15 20 -18
20 -18 14 9 -8 32 10 37 31 10 12 -17 13 -16 14 5 0 12 6 22 14 22 7 0 17 -10
21 -22 l7 -23 6 23 c4 13 12 23 17 23 6 0 13 -10 16 -23 l5 -23 12 23 c17 30
32 28 32 -5 1 -25 2 -26 14 -10 20 26 39 22 32 -8 -6 -23 -5 -24 13 -13 26 16
39 3 23 -22 -14 -22 -9 -25 18 -10 27 14 36 -6 14 -31 -17 -19 -16 -19 14 -13
33 7 46 -11 17 -22 -22 -9 -18 -23 4 -17 28 7 34 -13 9 -31 l-22 -16 22 0 c29
0 29 -26 0 -34 l-23 -7 23 -9 c31 -13 28 -30 -5 -31 l-28 0 23 -16 c29 -21 28
-36 -3 -31 -27 6 -32 -1 -14 -19 18 -18 1 -35 -22 -23 -21 12 -26 1 -7 -18 18
-18 0 -28 -23 -13 -19 11 -20 10 -14 -8 10 -33 -4 -45 -27 -24 -20 18 -20 17
-14 -4 9 -27 -13 -42 -29 -20 -15 21 -23 22 -21 1 2 -26 -25 -29 -31 -3 l-6
23 -8 -22 c-11 -28 -27 -28 -38 0 -6 18 -9 19 -14 5 -10 -25 -40 -22 -32 3 9
30 -8 24 -28 -9 -22 -38 -22 -48 1 -28 23 21 34 12 26 -20 -6 -23 -5 -24 14
-12 24 15 42 5 24 -13 -19 -19 -14 -30 7 -18 27 14 40 -9 16 -27 -18 -12 -17
-13 8 -13 29 0 37 -17 12 -26 -20 -8 -19 -22 1 -20 27 2 29 -25 3 -32 l-24 -6
23 -5 c13 -3 23 -10 23 -16 0 -5 -10 -13 -23 -16 l-23 -5 23 -13 c26 -14 19
-35 -9 -28 -23 6 -24 -2 -2 -18 23 -17 8 -38 -18 -25 -21 12 -26 1 -8 -17 6
-6 8 -17 4 -23 -5 -8 -10 -9 -18 -1 -18 18 -29 13 -17 -8 12 -23 -5 -40 -23
-22 -14 14 -30 14 -22 1 4 -6 4 -19 0 -28 -6 -16 -7 -16 -16 1 -14 23 -28 22
-22 -3 8 -29 -24 -26 -33 3 l-8 22 -6 -24 c-7 -31 -30 -40 -30 -12 0 27 -16
27 -23 0 -7 -26 -27 -16 -27 14 -1 20 -2 20 -11 5 -17 -30 -40 -23 -34 10 6
25 5 25 -8 10 -22 -28 -40 -23 -32 9 5 23 4 25 -9 14 -22 -18 -39 -5 -26 20
10 18 9 19 -14 13 -30 -7 -33 2 -8 29 16 19 16 19 -5 13 -28 -9 -40 11 -17 29
18 14 18 14 -3 15 -13 0 -23 6 -23 14 0 8 10 16 23 19 21 3 21 4 3 12 -15 6
-22 4 -30 -10 -6 -10 -23 -32 -38 -49 -23 -27 -33 -31 -77 -31 -43 0 -55 5
-82 31 -42 43 -49 97 -17 144 13 19 37 40 53 45 26 9 29 14 27 40 l-4 29 -17
-23 c-23 -30 -43 -19 -35 17 7 27 7 27 -14 9 -26 -24 -47 -14 -31 14 14 27 6
34 -20 18 -26 -17 -39 -4 -23 21 17 28 15 32 -9 19 -34 -18 -48 5 -18 31 l24
21 -32 -6 c-40 -8 -46 14 -10 38 l22 16 -27 0 c-38 1 -44 19 -11 32 l28 12
-25 6 c-14 4 -25 13 -25 21 0 8 11 17 25 20 l25 6 -22 12 c-33 18 -28 32 10
32 l32 0 -25 20 c-19 14 -22 22 -14 30 9 9 17 9 33 1 25 -14 27 -4 5 21 -16
16 -16 18 0 24 9 3 24 0 32 -7 15 -12 16 -10 10 19 -6 25 -4 32 8 32 8 0 18
-4 21 -10 12 -19 26 -11 16 8 -7 13 -6 23 2 31 9 9 16 6 29 -11 l18 -23 0 28
c0 32 29 38 37 7 6 -24 23 -16 23 11 0 10 7 19 15 19 8 0 15 -9 15 -19z m1440
-217 c0 -113 -2 -129 -21 -156 -34 -47 -73 -58 -204 -58 -111 0 -117 1 -139
25 -21 23 -31 25 -105 25 l-81 0 0 38 c0 22 -9 74 -20 117 -11 43 -20 80 -20
82 0 2 15 1 34 -2 39 -8 106 19 106 41 0 12 40 14 225 14 l225 0 0 -126z
m-2195 -519 l0 -360 -587 -3 -588 -2 0 365 0 365 588 -2 587 -3 0 -360z m3003
333 c7 -7 12 -24 12 -38 0 -37 -18 -50 -70 -50 -52 0 -70 13 -70 50 0 37 18
50 70 50 25 0 51 -5 58 -12z m157 -38 l0 -45 -48 -3 c-56 -4 -77 9 -77 47 0
40 18 52 75 49 l50 -3 0 -45z m153 38 c16 -16 15 -63 -2 -77 -8 -7 -36 -11
-63 -9 -46 3 -48 4 -51 36 -5 54 2 62 56 62 26 0 53 -5 60 -12z m-303 -153 l0
-40 -62 -3 c-55 -3 -62 -1 -68 18 -4 12 -4 33 -1 46 6 24 10 25 69 22 l62 -3
0 -40z m153 -3 l3 -43 -63 3 c-61 3 -63 4 -66 31 -6 51 2 58 65 55 l58 -3 3
-43z m157 3 l0 -40 -62 -3 -63 -3 0 39 c0 21 3 42 7 46 4 4 32 6 63 4 l55 -3
0 -40z m-307 -111 c4 -42 -16 -56 -74 -52 -54 3 -70 21 -60 62 6 26 9 27 69
24 61 -3 62 -3 65 -34z m150 -6 l-3 -43 -54 -3 c-59 -3 -71 5 -71 49 0 36 6
39 72 39 l59 0 -3 -42z m160 19 c2 -10 1 -30 -2 -43 -6 -23 -10 -25 -64 -22
l-57 3 -3 43 -3 43 63 -3 c52 -2 63 -6 66 -21z m-319 -101 c7 -8 11 -27 9 -43
-3 -27 -6 -28 -62 -31 -62 -3 -76 4 -76 44 0 11 5 25 12 32 17 17 103 15 117
-2z m159 -34 l3 -43 -63 3 c-61 3 -63 4 -66 31 -6 51 2 58 65 55 l58 -3 3 -43z
m157 3 l0 -40 -62 -3 -63 -3 0 39 c0 21 3 42 7 46 4 4 32 6 63 4 l55 -3 0 -40z
m-307 -98 c2 -10 1 -30 -2 -43 -6 -23 -10 -25 -63 -22 -63 3 -80 19 -69 62 6
26 9 27 69 24 51 -2 62 -6 65 -21z m150 -19 l-3 -43 -60 0 c-58 0 -60 1 -63
28 -6 50 2 57 68 57 l61 0 -3 -42z m157 -3 l0 -40 -60 0 -60 0 -3 43 -3 43 63
-3 63 -3 0 -40z"/>
<path d="M3307 4206 c-49 -18 -107 -58 -107 -73 0 -25 20 -22 69 8 83 52 163
50 247 -7 26 -18 40 -22 48 -14 16 16 -4 41 -57 68 -56 30 -148 38 -200 18z"/>
<path d="M3304 4111 c-39 -24 -49 -40 -36 -53 6 -6 21 -2 43 11 45 28 108 27
143 0 27 -21 61 -19 54 3 -17 50 -147 75 -204 39z"/>
<path d="M3350 4035 c-31 -38 27 -96 65 -65 18 15 20 51 3 68 -17 17 -53 15
-68 -3z"/>
<path d="M1033 3861 c-53 -14 -123 -60 -123 -81 0 -27 11 -25 66 10 81 51 178
49 242 -5 32 -27 47 -31 57 -14 9 14 -22 47 -67 70 -42 22 -129 32 -175 20z"/>
<path d="M1008 3759 c-37 -19 -48 -41 -29 -54 6 -3 25 4 43 15 42 26 94 25
137 -1 36 -22 64 -19 55 6 -10 25 -79 55 -126 55 -24 -1 -60 -10 -80 -21z"/>
<path d="M1062 3688 c-15 -15 -15 -51 0 -66 18 -18 56 -14 68 7 14 27 13 37
-6 55 -18 19 -45 21 -62 4z"/>
<path d="M2136 3544 c-3 -9 2 -26 12 -38 l17 -23 19 24 c18 25 16 53 -5 53 -8
0 -8 -4 1 -15 13 -16 6 -35 -15 -35 -21 0 -28 19 -15 35 7 9 8 15 2 15 -5 0
-13 -7 -16 -16z"/>
<path d="M2162 3450 c0 -14 2 -19 5 -12 2 6 2 18 0 25 -3 6 -5 1 -5 -13z"/>
<path d="M2161 3404 c0 -11 3 -14 6 -6 3 7 2 16 -1 19 -3 4 -6 -2 -5 -13z"/>
<path d="M2148 3362 c-16 -3 -17 -6 -3 -33 9 -16 18 -29 20 -29 2 0 11 13 19
29 14 26 14 29 -2 33 -9 2 -25 2 -34 0z"/>
<path d="M3470 3026 c0 -40 0 -40 35 -24 32 14 32 20 -5 41 l-30 18 0 -35z"/>
<path d="M3274 3035 c-16 -41 28 -61 57 -27 15 17 15 20 -2 30 -10 7 -22 12
-26 12 -5 0 -2 -4 6 -9 18 -11 7 -41 -15 -41 -12 0 -15 7 -12 25 6 28 1 33 -8
10z"/>
<path d="M3378 3023 c7 -3 16 -2 19 1 4 3 -2 6 -13 5 -11 0 -14 -3 -6 -6z"/>
<path d="M3428 3023 c7 -3 16 -2 19 1 4 3 -2 6 -13 5 -11 0 -14 -3 -6 -6z"/>
<path d="M4480 3094 c-51 -22 -82 -54 -69 -70 9 -11 17 -9 43 10 71 53 162 57
231 10 41 -27 65 -31 65 -9 0 8 -24 28 -52 45 -44 25 -64 30 -118 30 -36 -1
-81 -8 -100 -16z"/>
<path d="M4493 3010 c-18 -11 -33 -24 -33 -29 0 -21 20 -20 55 0 40 24 95 22
125 -6 21 -19 50 -19 50 0 0 26 -60 55 -115 55 -32 0 -62 -7 -82 -20z"/>
<path d="M4546 2939 c-21 -31 -4 -61 31 -57 34 4 52 32 37 56 -17 26 -50 27
-68 1z"/>
<path d="M2239 2744 c-9 -11 -10 -20 -2 -32 15 -24 44 -27 59 -7 28 38 -27 75
-57 39z"/>
<path d="M2673 2739 c-48 -30 -73 -78 -73 -136 0 -86 61 -152 147 -160 63 -7
112 14 149 63 24 31 29 47 29 95 0 65 -18 98 -75 137 -44 30 -131 31 -177 1z
m142 -84 c42 -41 30 -102 -23 -124 -54 -23 -122 29 -108 84 16 62 87 85 131
40z"/>
<path d="M2742 2628 c-30 -30 1 -73 36 -51 23 14 25 29 7 47 -20 19 -27 20
-43 4z m38 -13 c13 -16 6 -35 -15 -35 -18 0 -28 17 -21 35 7 19 20 19 36 0z"/>
<path d="M2039 2634 c-17 -21 0 -49 31 -49 31 0 48 28 31 49 -8 9 -21 16 -31
16 -10 0 -23 -7 -31 -16z"/>
<path d="M2202 2619 c-30 -11 -39 -54 -17 -79 25 -28 61 -25 81 5 30 47 -10
94 -64 74z m46 -47 c4 -28 -24 -41 -44 -20 -20 20 -7 50 20 46 13 -2 22 -12
24 -26z"/>
<path d="M2480 2590 c-11 -7 -8 -11 13 -19 16 -6 36 -11 45 -10 11 0 9 4 -8
10 -13 6 -27 14 -30 19 -3 5 -11 5 -20 0z"/>
<path d="M2358 2559 c-24 -13 -23 -46 1 -59 11 -5 22 -10 25 -10 8 0 36 31 36
40 0 10 -29 40 -38 40 -4 0 -15 -5 -24 -11z"/>
<path d="M2460 2535 c0 -3 12 -10 26 -15 32 -13 26 -36 -10 -33 -31 2 -34 -7
-6 -25 29 -18 14 -35 -23 -26 -31 6 -32 6 -14 -13 20 -23 23 -48 5 -40 -51 21
-48 22 -31 -22 18 -45 33 -55 25 -16 -5 29 4 32 30 8 17 -16 18 -15 16 7 -4
31 16 36 30 8 l11 -23 0 23 c1 12 7 22 15 22 8 0 17 -10 19 -22 l4 -23 8 23
c10 32 35 28 35 -5 1 -26 1 -27 12 -8 6 11 14 22 18 25 11 8 20 40 12 40 -5 0
-13 -5 -20 -12 -9 -9 -15 -9 -24 0 -9 9 -9 15 0 24 19 19 14 29 -8 16 -25 -16
-38 -3 -22 23 11 18 10 19 -13 13 -18 -4 -25 -2 -25 9 0 8 8 18 18 23 14 6 12
8 -13 14 -38 9 -75 12 -75 5z"/>
<path d="M2156 2444 c-9 -8 -16 -19 -16 -24 0 -5 7 -16 16 -24 8 -9 19 -16 24
-16 9 0 40 28 40 36 0 3 -5 14 -10 25 -13 23 -33 24 -54 3z"/>
<path d="M2354 2354 c3 -9 6 -21 6 -27 0 -7 9 -18 20 -25 19 -12 20 -11 14 15
-4 16 -11 34 -17 41 -14 17 -30 15 -23 -4z"/>
<path d="M2303 2324 c2 -32 -19 -43 -28 -15 -8 27 -23 27 -27 1 -4 -29 -22
-30 -26 -2 -4 29 -14 28 -29 -3 -9 -21 -9 -25 5 -25 33 0 80 -38 91 -73 10
-28 16 -34 32 -30 20 6 20 6 -1 20 -25 18 -16 36 13 27 21 -6 21 -6 5 13 -25
27 -22 36 7 29 32 -8 31 -3 -2 45 -33 45 -42 49 -40 13z"/>
<path d="M2462 2280 c-18 -11 -41 -34 -52 -52 -21 -34 -28 -104 -10 -93 6 3
10 19 10 35 0 38 50 95 95 110 19 6 39 9 44 6 5 -4 12 -2 16 4 11 18 -69 11
-103 -10z"/>
<path d="M2610 2283 c0 -5 14 -22 30 -38 42 -40 55 -93 35 -141 -17 -42 -11
-59 11 -30 23 31 18 117 -8 156 -24 35 -68 69 -68 53z"/>
<path d="M2180 2240 c0 -11 7 -23 16 -27 8 -3 19 -16 24 -28 5 -12 18 -25 29
-28 52 -13 6 83 -46 98 -19 5 -23 2 -23 -15z"/>
<path d="M2111 2224 c-20 -26 -28 -83 -14 -97 9 -10 44 23 37 35 -3 5 1 19 8
31 14 23 13 57 -2 57 -5 0 -18 -12 -29 -26z"/>
<path d="M2164 2179 c-8 -14 11 -33 25 -25 6 4 11 11 11 16 0 13 -29 20 -36 9z"/>
<path d="M2513 2164 c-8 -22 10 -49 32 -49 10 0 22 7 28 16 15 24 1 49 -28 49
-15 0 -28 -7 -32 -16z"/>
<path d="M2205 2130 c-4 -6 -17 -10 -30 -8 -29 4 -62 -22 -43 -33 23 -15 82
-9 108 11 14 10 23 21 20 23 -13 12 -49 17 -55 7z"/>
<path d="M2400 2081 c0 -16 51 -62 85 -77 44 -18 76 -18 122 1 49 20 37 29
-20 13 -60 -16 -118 1 -149 42 -21 29 -38 39 -38 21z"/>
<path d="M835 2204 c-80 -20 -145 -60 -145 -90 0 -21 29 -17 60 10 46 38 118
51 183 32 29 -8 62 -25 72 -36 20 -22 40 -26 50 -9 25 40 -143 111 -220 93z"/>
<path d="M805 2106 c-40 -17 -62 -43 -47 -58 11 -11 16 -9 62 17 36 21 76 18
121 -7 29 -16 42 -19 50 -11 16 16 2 32 -45 54 -48 22 -99 24 -141 5z"/>
<path d="M846 2024 c-30 -30 -13 -74 29 -74 44 0 63 60 26 80 -27 14 -37 13
-55 -6z"/>
<path d="M1363 4710 c0 -66 3 -120 7 -120 4 0 5 12 2 26 -4 23 -2 25 24 22 23
-2 29 -8 28 -25 -1 -13 3 -23 7 -23 5 0 9 54 9 120 0 66 -4 120 -9 120 -4 0
-8 -10 -7 -22 1 -18 -5 -24 -28 -26 -26 -3 -28 -1 -24 22 3 14 2 26 -2 26 -4
0 -7 -54 -7 -120z m61 29 c1 -29 -40 -41 -50 -15 -10 25 2 43 27 41 18 -1 23
-8 23 -26z m1 -64 c0 -31 -49 -28 -53 3 -3 20 0 23 25 20 20 -2 28 -8 28 -23z"/>
<path d="M1645 4710 c0 -66 3 -120 8 -120 4 0 7 11 7 25 0 20 5 25 26 25 23 0
26 -3 22 -25 -3 -14 -1 -25 3 -25 5 0 9 54 9 120 0 66 -4 120 -9 120 -4 0 -6
-11 -3 -25 4 -22 1 -25 -22 -25 -21 0 -26 5 -26 25 0 14 -3 25 -7 25 -5 0 -8
-54 -8 -120z m63 24 c-2 -11 -13 -20 -26 -22 -18 -3 -22 1 -22 22 0 15 7 26
18 29 23 5 35 -7 30 -29z m2 -59 c0 -20 -5 -25 -25 -25 -20 0 -25 5 -25 25 0
20 5 25 25 25 20 0 25 -5 25 -25z"/>
<path d="M2317 4763 c9 -16 17 -29 18 -30 0 -1 8 12 17 28 l17 29 -35 0 -34 0
17 -27z"/>
<path d="M1480 4710 c0 -38 3 -70 6 -70 11 0 124 64 124 70 0 6 -113 70 -124
70 -3 0 -6 -31 -6 -70z"/>
<path d="M1120 4732 c-29 -14 -36 -23 -38 -54 -3 -33 0 -39 30 -54 18 -9 55
-18 83 -19 30 -1 62 -9 79 -20 l29 -20 -18 28 c-16 25 -16 29 -1 46 63 70 -64
143 -164 93z"/>
<path d="M421 4673 c-10 -21 -9 -28 1 -34 16 -11 20 -11 37 0 11 7 10 13 -4
35 -10 14 -18 26 -20 26 -1 0 -7 -12 -14 -27z"/>
<path d="M1964 4688 c-4 -6 -8 -39 -8 -72 l0 -61 93 -3 92 -3 -3 73 -3 73 -82
3 c-56 2 -84 -1 -89 -10z m164 -65 l3 -63 -81 0 -80 0 0 65 0 66 78 -3 77 -3
3 -62z"/>
<path d="M788 4644 c-16 -8 -28 -17 -28 -19 0 -2 14 -11 30 -20 l30 -16 0 36
c0 19 -1 35 -2 35 -2 -1 -15 -8 -30 -16z"/>
<path d="M964 4642 l-21 -18 24 -17 c17 -14 27 -15 41 -8 15 9 13 10 -8 8 -19
-1 -25 3 -25 18 0 15 6 19 25 17 19 -2 22 0 10 8 -20 13 -21 12 -46 -8z"/>
<path d="M4464 4651 c-40 -17 -64 -60 -64 -113 0 -43 4 -54 31 -79 42 -39 112
-42 162 -7 38 27 27 34 -14 9 -46 -28 -91 -27 -127 4 -51 43 -51 107 -1 154
32 30 98 29 127 -2 29 -30 29 -87 2 -112 -30 -27 -34 -13 -15 45 9 28 14 54
10 58 -4 4 -10 2 -12 -5 -3 -9 -9 -9 -22 -1 -27 17 -69 1 -86 -32 -35 -68 -11
-100 71 -96 46 2 60 7 75 27 26 34 24 92 -4 124 -25 29 -94 43 -133 26z m74
-92 c4 -33 -29 -75 -51 -66 -37 14 -6 102 32 95 9 -2 17 -15 19 -29z"/>
<path d="M2296 4623 c-9 -27 -31 -30 -46 -5 -8 14 -10 12 -8 -13 3 -25 0 -30
-19 -29 -13 0 -23 -3 -23 -8 0 -4 7 -8 15 -8 21 0 19 -30 -2 -46 -16 -12 -15
-13 12 -11 25 2 31 -2 33 -21 3 -22 4 -23 17 -5 12 15 17 16 34 5 19 -11 21
-10 18 10 -1 16 5 23 23 28 21 6 23 8 8 15 -19 8 -25 45 -8 45 6 0 10 4 10 8
0 5 -10 8 -22 8 -15 -1 -24 7 -28 24 l-6 25 -8 -22z m12 -45 c28 -28 1 -75
-37 -63 -27 8 -32 29 -15 54 17 24 34 27 52 9z"/>
<path d="M848 4623 c7 -3 16 -2 19 1 4 3 -2 6 -13 5 -11 0 -14 -3 -6 -6z"/>
<path d="M898 4623 c7 -3 16 -2 19 1 4 3 -2 6 -13 5 -11 0 -14 -3 -6 -6z"/>
<path d="M430 4600 c0 -5 5 -10 10 -10 6 0 10 5 10 10 0 6 -4 10 -10 10 -5 0
-10 -4 -10 -10z"/>
<path d="M430 4550 c0 -5 5 -10 10 -10 6 0 10 5 10 10 0 6 -4 10 -10 10 -5 0
-10 -4 -10 -10z"/>
<path d="M1804 4552 c-39 -6 -57 -38 -63 -110 -6 -67 -6 -67 -38 -70 -18 -2
-33 -5 -33 -6 0 -24 28 -70 51 -81 85 -45 179 12 179 109 0 30 3 37 15 32 12
-4 13 -2 3 14 -10 15 -9 23 6 39 17 19 17 19 -3 14 -14 -4 -21 -1 -21 9 0 31
-51 57 -96 50z m82 -53 c8 -14 -21 -43 -35 -35 -6 4 -11 16 -11 27 0 21 34 27
46 8z"/>
<path d="M2028 4523 c12 -2 32 -2 45 0 12 2 2 4 -23 4 -25 0 -35 -2 -22 -4z"/>
<path d="M430 4505 c0 -8 -4 -15 -10 -15 -12 0 -13 -37 -2 -44 5 -3 8 5 8 17
-1 13 5 22 14 22 9 0 15 -9 14 -23 0 -14 3 -19 9 -13 6 6 4 21 -4 40 -15 33
-29 41 -29 16z"/>
<path d="M1980 4385 l0 -85 115 0 115 0 0 85 0 85 -115 0 -115 0 0 -85z m210
0 l0 -76 -97 3 -98 3 -3 59 c-2 32 -1 65 2 72 4 11 29 14 101 14 l95 0 0 -75z"/>
<path d="M399 4369 c-14 -27 1 -64 30 -72 44 -11 81 49 49 81 -20 20 -66 14
-79 -9z"/>
<path d="M4524 4369 c-3 -5 5 -9 18 -9 51 0 128 -74 128 -122 0 -10 4 -18 9
-18 12 0 -3 65 -23 95 -9 13 -26 30 -38 36 -33 18 -87 28 -94 18z"/>
<path d="M4413 4338 c-32 -41 -3 -101 83 -177 85 -75 116 -82 154 -36 11 13
10 19 -5 35 -20 23 -51 26 -58 8 -3 -8 -27 9 -63 45 -54 52 -58 59 -46 78 11
18 11 24 -4 40 -20 22 -47 25 -61 7z"/>
<path d="M4558 4300 c33 -15 44 -26 48 -50 7 -33 24 -41 24 -11 0 35 -48 81
-83 81 l-32 0 43 -20z"/>
<path d="M2290 4221 l0 -89 -44 5 c-53 6 -86 -10 -86 -41 0 -32 25 -51 70 -51
58 0 70 16 70 96 0 42 4 69 11 69 23 0 51 -23 65 -53 15 -32 15 -32 11 23 -4
42 -9 58 -27 70 -12 8 -33 25 -46 37 l-24 22 0 -88z"/>
<path d="M415 4272 c-37 -4 -55 -26 -55 -69 l0 -33 80 0 80 0 0 39 c0 54 -29
71 -105 63z"/>
<path d="M1967 4236 c-8 -25 -13 -47 -9 -50 7 -7 267 -8 274 -1 3 3 -2 26 -11
50 l-16 45 -111 0 -112 0 -15 -44z m183 -6 c0 -18 -7 -20 -55 -20 -48 0 -55 2
-55 20 0 18 7 20 55 20 48 0 55 -2 55 -20z"/>
<path d="M350 4113 c-40 -27 -49 -45 -50 -94 0 -37 5 -52 26 -73 15 -14 31
-26 36 -26 6 0 -4 13 -21 29 -51 48 -41 125 21 157 100 52 191 -74 113 -157
-26 -28 -27 -30 -7 -19 37 18 57 76 42 122 -20 67 -104 99 -160 61z"/>
<path d="M354 4077 c-34 -30 -37 -79 -6 -110 12 -12 22 -16 22 -10 0 6 -7 16
-15 23 -24 20 -18 66 11 89 33 26 55 26 85 3 28 -24 30 -73 3 -103 -14 -16
-15 -21 -4 -17 22 7 43 56 36 84 -16 62 -83 83 -132 41z"/>
<path d="M389 4048 c-1 -2 -3 -32 -4 -68 -1 -36 -5 -82 -9 -102 l-8 -38 39 0
39 0 -14 72 c-11 56 -12 76 -3 91 9 14 9 22 0 33 -10 12 -36 19 -40 12z"/>
<path d="M4392 3923 l3 -118 155 0 155 0 3 118 3 117 -161 0 -161 0 3 -117z
m298 103 c0 -10 -129 -106 -142 -106 -7 0 -36 18 -63 41 -91 74 -96 69 63 69
78 0 142 -2 142 -4z m-230 -65 l45 -40 -45 -40 c-25 -22 -48 -40 -52 -41 -5 0
-8 36 -8 80 0 44 3 80 8 80 4 0 27 -18 52 -39z m240 -41 c0 -44 -3 -80 -6 -80
-3 0 -27 19 -54 41 l-49 41 47 39 c26 21 50 38 55 39 4 0 7 -36 7 -80z m-63
-55 c29 -22 52 -43 53 -47 0 -5 -63 -8 -140 -8 -77 0 -140 3 -139 8 0 4 24 26
52 48 68 55 103 54 174 -1z"/>
<path d="M315 3787 c-16 -8 -37 -23 -46 -33 -21 -25 -43 -83 -35 -91 3 -3 6 1
6 10 0 21 46 75 81 92 15 8 42 15 60 15 31 0 99 -34 99 -50 0 -4 6 -10 14 -13
25 -10 5 32 -26 55 -37 26 -112 33 -153 15z"/>
<path d="M4696 3748 c-13 -13 -27 -34 -30 -48 -5 -18 -2 -15 11 10 31 60 108
67 137 12 10 -18 15 -21 16 -10 0 24 -47 58 -81 58 -15 0 -39 -10 -53 -22z"/>
<path d="M4470 3710 c0 -36 2 -40 26 -40 19 0 25 -5 22 -17 -2 -13 -16 -20
-53 -24 l-50 -6 50 -3 c28 -2 71 -2 98 -1 37 2 47 0 47 -13 0 -10 -9 -16 -24
-16 -21 0 -23 -4 -22 -42 l1 -43 50 0 50 0 3 43 c3 39 1 42 -22 42 -19 0 -26
5 -26 20 0 17 -7 20 -45 20 -38 0 -45 3 -45 20 0 15 7 20 25 20 23 0 25 4 25
40 l0 40 -55 0 -55 0 0 -40z"/>
<path d="M4740 3720 c0 -13 -7 -20 -20 -20 -11 0 -20 -7 -20 -15 0 -8 9 -15
20 -15 13 0 20 -7 20 -20 0 -11 5 -20 10 -20 6 0 10 9 10 20 0 13 7 20 20 20
11 0 20 7 20 15 0 8 -9 15 -20 15 -13 0 -20 7 -20 20 0 11 -4 20 -10 20 -5 0
-10 -9 -10 -20z"/>
<path d="M517 3665 c7 -49 13 -58 13 -19 0 16 -5 36 -10 44 -6 10 -7 2 -3 -25z"/>
<path d="M300 3615 c0 -37 4 -65 10 -65 6 0 10 28 10 65 0 37 -4 65 -10 65 -6
0 -10 -28 -10 -65z"/>
<path d="M435 3667 c-10 -24 -1 -107 10 -107 14 0 19 100 6 113 -7 7 -12 5
-16 -6z"/>
<path d="M262 3658 c-17 -17 -15 -73 3 -88 13 -11 15 -5 15 44 0 31 -1 56 -3
56 -2 0 -8 -5 -15 -12z"/>
<path d="M480 3614 c1 -54 2 -57 15 -40 19 26 19 70 0 86 -13 11 -15 5 -15
-46z"/>
<path d="M4670 3659 c0 -15 38 -48 64 -55 13 -3 34 0 46 6 20 11 27 7 65 -30
23 -23 45 -38 48 -33 4 6 -12 27 -33 48 -27 27 -38 45 -34 57 3 12 -5 8 -25
-12 -37 -38 -65 -38 -102 -1 -16 16 -29 25 -29 20z"/>
<path d="M4380 3545 l0 -45 50 0 50 0 0 45 0 45 -50 0 -50 0 0 -45z"/>
<path d="M387 3492 c-25 -27 -24 -153 1 -175 26 -24 68 -21 86 5 24 35 22 142
-4 168 -25 25 -62 26 -83 2z m75 -9 c10 -9 18 -29 18 -45 0 -27 -2 -28 -50
-28 -47 0 -50 2 -50 26 0 58 42 83 82 47z"/>
<path d="M420 3470 c0 -5 5 -10 10 -10 6 0 10 5 10 10 0 6 -4 10 -10 10 -5 0
-10 -4 -10 -10z"/>
<path d="M400 3440 c0 -5 5 -10 10 -10 6 0 10 5 10 10 0 6 -4 10 -10 10 -5 0
-10 -4 -10 -10z"/>
<path d="M440 3440 c0 -5 5 -10 10 -10 6 0 10 5 10 10 0 6 -4 10 -10 10 -5 0
-10 -4 -10 -10z"/>
<path d="M341 3373 c-1 -31 5 -49 25 -72 14 -17 32 -31 40 -31 24 0 16 -38 -8
-43 -13 -2 2 -4 32 -4 30 0 43 2 28 4 -20 3 -28 10 -28 24 0 10 6 19 14 19 8
0 27 10 41 23 21 18 28 34 31 72 l3 50 -9 -50 c-10 -57 -37 -85 -80 -85 -44 0
-73 30 -81 86 l-6 49 -2 -42z"/>
<path d="M410 3020 l0 -160 70 0 70 0 0 160 0 160 -70 0 -70 0 0 -160z m108
124 c13 -9 22 -25 22 -42 0 -33 -8 -45 -39 -62 -20 -10 -27 -9 -50 7 -33 26
-39 65 -12 92 25 25 49 27 79 5z"/>
<path d="M452 3128 c-7 -7 -12 -22 -12 -35 0 -28 36 -46 63 -31 33 17 15 78
-23 78 -9 0 -21 -5 -28 -12z m28 -23 c0 -8 -7 -15 -15 -15 -8 0 -15 7 -15 15
0 8 7 15 15 15 8 0 15 -7 15 -15z"/>
<path d="M580 3143 c0 -4 45 -7 100 -5 l100 3 0 -71 0 -71 -100 3 c-55 2 -100
-1 -100 -5 0 -4 46 -6 103 -5 l102 3 0 75 0 75 -102 3 c-57 1 -103 -1 -103 -5z"/>
<path d="M583 3070 c0 -30 2 -43 4 -27 2 15 2 39 0 55 -2 15 -4 2 -4 -28z"/>
<path d="M900 3095 c0 -4 10 -15 22 -24 24 -20 20 -47 -8 -58 -11 -4 -24 2
-36 17 -10 12 -21 21 -23 18 -3 -3 6 -17 21 -31 21 -21 29 -24 43 -15 29 18
40 42 27 58 -16 21 -46 44 -46 35z"/>
<path d="M870 3069 c0 -5 5 -7 10 -4 6 3 10 8 10 11 0 2 -4 4 -10 4 -5 0 -10
-5 -10 -11z"/>
<path d="M650 2928 c-19 -13 -35 -30 -38 -38 -2 -8 3 -5 12 6 15 20 49 38 91
47 15 4 14 5 -6 6 -14 0 -41 -9 -59 -21z"/>
<path d="M741 2938 c2 -2 18 -14 34 -28 l30 -25 -24 28 c-14 15 -29 27 -34 27
-6 0 -8 -1 -6 -2z"/>
<path d="M671 2889 c-25 -32 -22 -51 4 -29 21 17 22 14 17 -52 -3 -39 -8 -58
-17 -58 -23 0 -65 60 -66 93 -1 19 -3 24 -6 14 -8 -30 6 -67 34 -93 37 -34
102 -33 140 2 l28 26 -29 -21 c-48 -35 -56 -29 -56 41 0 48 3 59 12 50 16 -16
28 -15 28 1 0 15 -42 57 -56 56 -5 0 -20 -14 -33 -30z"/>
<path d="M801 2864 c0 -11 3 -14 6 -6 3 7 2 16 -1 19 -3 4 -6 -2 -5 -13z"/>
<path d="M801 2814 c0 -11 3 -14 6 -6 3 7 2 16 -1 19 -3 4 -6 -2 -5 -13z"/>
<path d="M1417 2803 c-16 -8 -27 -16 -25 -18 1 -1 17 -10 34 -18 l31 -16 -2
30 c-2 38 -5 40 -38 22z"/>
<path d="M1597 2802 c-15 -16 -15 -19 6 -31 20 -13 21 -13 9 2 -15 18 -8 37
13 37 21 0 28 -19 15 -35 -9 -11 -9 -15 -1 -15 18 0 25 29 11 45 -16 20 -33
19 -53 -3z"/>
<path d="M496 2774 c-24 -24 -19 -50 15 -78 47 -40 58 -31 16 12 l-38 38 22
20 c21 19 21 19 55 -20 19 -22 34 -33 34 -26 0 20 -51 70 -71 70 -10 0 -25 -7
-33 -16z"/>
<path d="M1488 2783 c7 -3 16 -2 19 1 4 3 -2 6 -13 5 -11 0 -14 -3 -6 -6z"/>
<path d="M550 2714 c0 -13 81 -87 87 -80 4 3 -11 24 -32 46 -36 37 -55 49 -55
34z"/>
<path d="M298 2662 c-9 -32 1 -42 28 -30 30 14 30 22 0 36 -20 9 -25 8 -28 -6z"/>
<path d="M667 2646 c32 -29 35 -36 24 -50 -19 -23 -33 -20 -66 14 -16 16 -31
28 -34 25 -7 -7 60 -75 74 -75 16 0 45 33 45 51 0 18 -51 69 -68 69 -6 0 5
-15 25 -34z"/>
<path d="M3957 2630 l-18 -30 40 0 40 0 -17 30 c-9 16 -19 30 -22 30 -3 0 -14
-13 -23 -30z"/>
<path d="M208 2643 c7 -3 16 -2 19 1 4 3 -2 6 -13 5 -11 0 -14 -3 -6 -6z"/>
<path d="M165 2630 c-3 -6 1 -7 9 -4 18 7 21 14 7 14 -6 0 -13 -4 -16 -10z"/>
<path d="M3971 2564 c0 -11 3 -14 6 -6 3 7 2 16 -1 19 -3 4 -6 -2 -5 -13z"/>
<path d="M3971 2514 c0 -11 3 -14 6 -6 3 7 2 16 -1 19 -3 4 -6 -2 -5 -13z"/>
<path d="M3961 2457 c-13 -20 -13 -21 2 -9 9 8 21 11 27 7 16 -10 12 -33 -7
-45 -11 -7 -12 -10 -4 -7 8 2 19 11 25 20 8 13 6 21 -9 37 l-20 20 -14 -23z"/>
<path d="M3822 2318 c-7 -13 -13 -57 -14 -98 l-3 -75 -40 -2 c-64 -4 -157 -24
-187 -39 l-28 -15 0 -524 0 -524 27 -20 c52 -41 127 -56 288 -56 167 0 241 15
288 59 l27 25 0 519 0 520 -34 16 c-42 20 -124 36 -182 36 l-44 0 0 78 c-1 86
-19 122 -62 122 -15 0 -29 -9 -36 -22z m128 -218 c0 -6 -35 -10 -85 -10 -50 0
-85 4 -85 10 0 6 35 10 85 10 50 0 85 -4 85 -10z m190 -525 l0 -475 -280 0
-280 0 0 475 0 475 280 0 280 0 0 -475z m-362 -522 c3 -10 -14 -13 -62 -13
-61 0 -77 6 -59 24 12 12 116 2 121 -11z m150 0 c3 -10 -14 -13 -62 -13 -61 0
-77 6 -59 24 12 12 116 2 121 -11z m150 0 c3 -10 -14 -13 -62 -13 -61 0 -77 6
-59 24 12 12 116 2 121 -11z"/>
<path d="M3807 1510 c-71 -18 -137 -66 -122 -89 10 -17 25 -13 57 14 64 54
161 56 243 4 32 -20 51 -27 58 -20 17 17 0 38 -55 65 -61 30 -127 39 -181 26z"/>
<path d="M3795 1416 c-36 -16 -59 -41 -50 -56 9 -15 24 -12 52 10 34 26 86 25
134 -2 30 -16 42 -19 51 -10 15 15 -2 35 -46 56 -41 19 -100 20 -141 2z"/>
<path d="M3836 1334 c-30 -30 -13 -74 29 -74 44 0 63 60 26 80 -27 14 -37 13
-55 -6z"/>
<path d="M114 2059 c-3 -6 -2 -15 3 -20 5 -5 9 -1 9 11 0 23 -2 24 -12 9z"/>
<path d="M200 1443 c-29 -120 -60 -251 -70 -292 -10 -40 -16 -79 -13 -87 4
-12 127 -14 773 -14 723 0 769 1 774 18 3 9 -25 145 -63 302 l-69 285 -640 3
-640 2 -52 -217z m248 170 c-2 -13 -14 -19 -41 -21 -39 -3 -40 -3 -31 22 4 10
18 16 41 16 27 0 34 -4 31 -17z m80 0 c-2 -13 -14 -19 -40 -21 -32 -3 -36 -1
-31 17 7 28 76 31 71 4z m80 0 c-2 -13 -14 -19 -40 -21 -32 -3 -36 -1 -31 17
7 28 76 31 71 4z m78 -14 c-3 -17 -6 -40 -6 -50 0 -15 -7 -19 -35 -19 -31 0
-35 3 -35 25 0 17 6 25 18 26 10 0 12 3 5 6 -7 2 -13 13 -13 24 0 15 7 19 36
19 36 0 36 -1 30 -31z m80 0 c-3 -17 -6 -40 -6 -50 0 -15 -7 -19 -36 -19 l-37
0 7 38 c3 20 6 43 6 50 0 7 14 12 36 12 36 0 36 -1 30 -31z m81 -16 l-2 -48
-39 -3 c-39 -3 -39 -3 -32 29 3 17 6 40 6 50 0 15 7 19 35 19 l34 0 -2 -47z
m81 -3 l1 -50 -35 0 -34 0 0 50 0 50 34 0 34 0 0 -50z m80 0 l1 -50 -35 0 -34
0 0 50 0 50 34 0 34 0 0 -50z m80 -2 l2 -48 -35 0 -35 0 0 51 0 50 33 -3 c31
-3 32 -5 35 -50z m80 0 l2 -48 -34 0 c-34 0 -34 0 -38 50 l-3 51 35 -3 c34 -3
35 -4 38 -50z m73 45 c1 -5 3 -17 4 -28 1 -11 5 -30 9 -43 7 -22 5 -23 -31
-20 -35 3 -38 5 -39 34 -1 18 -4 39 -7 48 -5 13 1 16 28 16 19 0 36 -3 36 -7z
m80 0 c1 -5 3 -17 5 -28 1 -11 6 -30 10 -42 6 -21 3 -23 -29 -23 -27 0 -37 5
-42 21 -4 11 -4 23 -2 26 3 3 2 16 -3 29 -9 22 -7 24 25 24 19 0 36 -3 36 -7z
m84 -20 c0 -12 4 -25 8 -29 4 -4 7 -16 7 -26 0 -14 -8 -18 -35 -18 -21 0 -36
5 -36 13 -4 36 -8 54 -14 70 -7 16 -3 18 31 15 32 -2 39 -7 39 -25z m-965 -32
c0 -28 -14 -41 -46 -41 -34 0 -39 6 -28 34 7 17 74 23 74 7z m78 -13 c-2 -19
-10 -24 -42 -26 -32 -3 -38 -1 -32 13 3 9 6 21 6 26 0 5 16 9 36 9 31 0 35 -3
32 -22z m82 -3 c0 -22 -4 -25 -35 -25 -31 0 -35 3 -35 25 0 22 4 25 35 25 31
0 35 -3 35 -25z m-170 -47 c0 -23 -15 -36 -45 -41 l-30 -4 34 -2 c26 -1 32 -4
27 -17 -3 -9 -6 -20 -6 -25 0 -5 -16 -9 -36 -9 l-36 0 7 48 c4 26 9 50 12 55
8 12 73 8 73 -5z m80 -13 c0 -22 -4 -25 -33 -25 -40 0 -46 5 -40 31 4 14 14
19 39 19 30 0 34 -3 34 -25z m82 0 c-4 -21 -10 -25 -38 -25 -30 0 -34 3 -34
25 0 22 4 25 39 25 35 0 38 -2 33 -25z m86 3 c-2 -19 -10 -24 -40 -26 -32 -3
-38 0 -38 16 0 26 8 32 47 32 30 0 34 -3 31 -22z m82 -3 c0 -22 -4 -25 -35
-25 -31 0 -35 3 -35 25 0 22 4 25 35 25 31 0 35 -3 35 -25z m80 0 c0 -22 -4
-25 -35 -25 -31 0 -35 3 -35 25 0 22 4 25 35 25 31 0 35 -3 35 -25z m90 0 c0
-22 -4 -25 -35 -25 -31 0 -35 3 -35 25 0 22 4 25 35 25 31 0 35 -3 35 -25z
m80 0 c0 -22 -4 -25 -35 -25 -31 0 -35 3 -35 25 0 22 4 25 35 25 31 0 35 -3
35 -25z m84 9 c11 -29 6 -34 -34 -34 -36 0 -40 3 -40 25 0 22 4 25 34 25 22 0
36 -6 40 -16z m86 -9 c0 -22 -4 -25 -34 -25 -28 0 -34 4 -38 25 -5 23 -2 25
33 25 35 0 39 -3 39 -25z m80 0 c0 -22 -4 -25 -35 -25 -31 0 -35 3 -35 25 0
22 4 25 35 25 31 0 35 -3 35 -25z m84 8 c3 -10 8 -35 12 -56 l6 -38 -38 3
c-32 2 -40 7 -42 26 -3 19 1 22 30 23 l33 2 -30 4 c-30 5 -45 18 -45 41 0 20
68 15 74 -5z m89 -20 c3 -21 8 -46 12 -55 6 -15 1 -18 -33 -18 -34 0 -40 3
-44 25 -5 22 -2 25 26 27 l31 1 -31 4 c-24 3 -33 10 -37 29 -4 22 -1 24 33 24
36 0 38 -2 43 -37z m-933 -48 c0 -23 -4 -25 -41 -25 -33 0 -40 3 -35 16 3 9 6
20 6 25 0 5 16 9 35 9 31 0 35 -3 35 -25z m88 3 c-2 -19 -10 -24 -40 -26 -35
-3 -38 -1 -38 22 0 24 4 26 41 26 36 0 40 -2 37 -22z m82 -3 c0 -22 -4 -25
-35 -25 -31 0 -35 3 -35 25 0 22 4 25 35 25 31 0 35 -3 35 -25z m90 0 c0 -22
-4 -25 -40 -25 -36 0 -40 3 -40 25 0 23 4 25 40 25 36 0 40 -2 40 -25z m80 0
c0 -22 -4 -25 -35 -25 -31 0 -35 3 -35 25 0 22 4 25 35 25 31 0 35 -3 35 -25z
m90 0 c0 -22 -4 -25 -40 -25 -36 0 -40 3 -40 25 0 23 4 25 40 25 36 0 40 -2
40 -25z m80 16 c0 -5 3 -16 6 -25 5 -13 -2 -16 -35 -16 -37 0 -41 2 -41 25 0
22 4 25 35 25 19 0 35 -4 35 -9z m90 -16 c0 -22 -4 -25 -34 -25 -28 0 -34 4
-38 25 -5 23 -2 25 33 25 35 0 39 -3 39 -25z m88 -2 c3 -21 -1 -23 -37 -23
-37 0 -41 2 -41 26 0 23 3 25 38 22 30 -2 38 -7 40 -25z m82 2 c0 -22 -4 -25
-34 -25 -28 0 -34 4 -38 25 -5 23 -2 25 33 25 35 0 39 -3 39 -25z m-117 -117
c3 -18 9 -68 13 -110 l6 -78 -275 0 c-152 0 -278 3 -280 8 -5 8 11 180 18 200
3 9 64 12 259 12 l254 0 5 -32z"/>
<path d="M4333 1643 c-73 -14 -99 -119 -44 -174 23 -23 38 -29 71 -29 52 0 76
13 95 50 19 37 19 63 -1 101 -13 27 -69 62 -91 58 -4 -1 -18 -4 -30 -6z m-9
-28 c-4 -8 -13 -15 -21 -15 -13 0 -13 3 -3 15 7 8 16 15 21 15 5 0 6 -7 3 -15z
m36 0 c0 -8 -7 -15 -15 -15 -9 0 -12 6 -9 15 4 8 10 15 15 15 5 0 9 -7 9 -15z
m42 6 c3 8 8 7 16 -3 10 -13 7 -15 -18 -16 -21 0 -30 4 -30 15 0 12 3 13 14 4
11 -9 15 -9 18 0z m-99 -37 c9 -10 -4 -34 -19 -34 -8 0 -14 6 -14 13 0 22 19
35 33 21z m55 -17 c3 -12 -3 -17 -21 -17 -20 0 -24 4 -20 20 7 25 36 23 41 -3z
m50 0 c2 -12 -3 -17 -17 -17 -15 0 -21 6 -21 21 0 25 33 22 38 -4z m42 19 c0
-2 3 -11 6 -20 4 -12 0 -16 -15 -16 -14 0 -21 6 -21 20 0 11 7 20 15 20 8 0
15 -2 15 -4z m-152 -58 c18 -18 15 -28 -8 -28 -13 0 -20 7 -20 20 0 23 10 26
28 8z m60 -11 c2 -12 -3 -17 -17 -17 -14 0 -21 6 -21 19 0 24 34 22 38 -2z
m47 2 c0 -7 -8 -15 -17 -17 -18 -3 -25 18 -11 32 10 10 28 1 28 -15z m50 0 c0
-7 -8 -15 -17 -17 -18 -3 -25 18 -11 32 10 10 28 1 28 -15z m-137 -41 c19 -19
14 -30 -8 -18 -11 6 -20 15 -20 20 0 14 14 12 28 -2z m41 -14 c3 -16 1 -17
-13 -5 -19 16 -21 34 -3 29 6 -3 14 -13 16 -24z m31 12 c0 -8 -4 -18 -10 -21
-5 -3 -10 3 -10 14 0 12 5 21 10 21 6 0 10 -6 10 -14z m35 -6 c-20 -23 -29
-21 -19 4 3 9 13 16 22 16 13 0 12 -3 -3 -20z"/>
<path d="M4583 1578 c-36 -35 -69 -71 -75 -81 -12 -24 15 -67 41 -67 30 0 133
99 129 124 -5 37 -40 30 -88 -19 -56 -57 -41 -60 17 -3 34 33 46 39 55 30 9
-9 2 -22 -32 -58 -52 -53 -73 -66 -94 -58 -34 13 -25 37 41 105 74 77 103 91
133 64 32 -29 24 -53 -42 -123 l-62 -67 67 65 c72 69 82 95 47 130 -35 35 -66
26 -137 -42z"/>
<path d="M4438 1373 c6 -2 18 -2 25 0 6 3 1 5 -13 5 -14 0 -19 -2 -12 -5z"/>
<path d="M4411 1363 c-1 -9 -24 -13 -81 -13 l-80 0 0 -90 0 -90 130 0 130 0 0
89 c0 80 -2 89 -20 94 -11 3 -20 1 -20 -4 0 -17 -48 -9 -53 9 -3 9 -5 11 -6 5z
m27 -43 c53 -49 29 -122 -41 -128 -28 -2 -42 3 -62 22 -33 33 -32 61 4 97 34
34 69 37 99 9z"/>
<path d="M4350 1300 c-25 -25 -26 -52 -2 -73 36 -33 102 -12 102 31 0 29 -30
62 -56 62 -13 0 -33 -9 -44 -20z m20 -20 c0 -5 -4 -10 -10 -10 -5 0 -10 5 -10
10 0 6 5 10 10 10 6 0 10 -4 10 -10z"/>
<path d="M4336 1105 c-10 -41 -42 -65 -83 -65 l-37 0 33 -34 c31 -31 33 -39
27 -75 -3 -23 -4 -41 -1 -41 2 0 20 8 40 17 33 16 37 16 70 0 20 -9 37 -17 39
-17 2 0 0 18 -5 40 -9 38 -7 41 28 75 l38 34 -40 1 c-49 0 -57 6 -74 48 -18
43 -27 47 -35 17z"/>
<path d="M899 964 c7 -15 7 -24 -1 -32 -8 -8 -9 -12 -1 -12 18 0 22 27 7 47
-14 17 -15 17 -5 -3z"/>
<path d="M1348 962 c-5 -21 1 -52 10 -52 4 0 17 8 29 18 l23 17 -29 17 c-27
15 -29 15 -33 0z"/>
<path d="M1193 950 c2 -20 -3 -25 -20 -24 -12 0 -20 -3 -17 -8 8 -13 24 -9 51
12 18 14 21 20 10 20 -8 0 -18 6 -21 13 -2 6 -4 1 -3 -13z"/>
<path d="M1005 939 c-4 -6 -13 -8 -21 -5 -9 3 -14 -1 -14 -12 0 -10 -5 -23
-12 -30 -9 -9 -9 -12 0 -12 7 0 12 -9 12 -20 0 -13 7 -20 19 -20 11 0 22 -6
25 -12 5 -10 7 -10 12 0 3 6 14 12 25 12 12 0 19 7 19 20 0 11 5 20 12 20 9 0
9 3 0 12 -7 7 -12 20 -12 30 0 11 -5 15 -14 12 -8 -3 -17 -1 -21 5 -3 6 -10
11 -15 11 -5 0 -12 -5 -15 -11z m43 -21 c34 -34 -6 -90 -48 -68 -35 19 -20 80
20 80 9 0 21 -5 28 -12z"/>
<path d="M4120 822 c-6 -2 -10 -52 -10 -121 l0 -117 38 -37 39 -38 84 3 84 3
3 153 c1 83 -1 152 -5 152 -63 3 -225 4 -233 2z m228 -154 l-3 -143 -77 -3
-78 -3 0 36 c0 33 -2 35 -35 35 l-35 0 0 110 0 110 115 0 116 0 -3 -142z"/>
<path d="M4183 763 c26 -2 68 -2 95 0 26 2 4 3 -48 3 -52 0 -74 -1 -47 -3z"/>
<path d="M4193 723 c26 -2 67 -2 90 0 23 2 2 3 -48 3 -49 0 -68 -1 -42 -3z"/>
<path d="M4150 680 c0 -6 35 -10 85 -10 50 0 85 4 85 10 0 6 -35 10 -85 10
-50 0 -85 -4 -85 -10z"/>
<path d="M4150 640 c0 -6 35 -10 85 -10 50 0 85 4 85 10 0 6 -35 10 -85 10
-50 0 -85 -4 -85 -10z"/>
</g>
</svg>
