<?xml version="1.0" standalone="no"?>
<!DOCTYPE svg PUBLIC "-//W3C//DTD SVG 20010904//EN"
 "http://www.w3.org/TR/2001/REC-SVG-20010904/DTD/svg10.dtd">
<svg version="1.0" xmlns="http://www.w3.org/2000/svg"
 width="512.000000pt" height="512.000000pt" viewBox="0 0 512.000000 512.000000"
 preserveAspectRatio="xMidYMid meet">

<g transform="translate(0.000000,512.000000) scale(0.100000,-0.100000)"
fill="#000000" stroke="none">
<path d="M1855 5114 c-271 -41 -452 -109 -651 -242 -257 -173 -460 -440 -557
-732 l-25 -75 -71 -40 c-290 -163 -475 -425 -527 -745 -54 -330 65 -679 309
-907 62 -58 209 -163 228 -163 5 0 9 87 9 205 0 112 5 228 11 257 36 171 175
310 347 347 75 16 3188 16 3264 0 171 -36 310 -175 347 -347 6 -31 11 -153 11
-297 0 -151 4 -245 10 -245 19 0 107 39 167 74 192 113 337 328 373 556 57
363 -154 727 -496 856 -87 33 -197 54 -279 54 l-63 0 -13 38 c-35 109 -126
256 -221 357 -184 197 -470 325 -729 325 l-57 0 -39 63 c-137 217 -344 402
-578 516 -211 103 -360 140 -590 146 -82 2 -163 1 -180 -1z"/>
<path d="M948 2709 c-23 -12 -46 -35 -58 -59 -19 -38 -20 -58 -20 -585 l0
-545 1690 0 1690 0 0 545 c0 527 -1 547 -20 585 -13 26 -34 47 -60 60 -39 20
-55 20 -1612 20 -1546 -1 -1574 -1 -1610 -21z m1288 -475 c50 -37 68 -70 68
-124 0 -54 -18 -87 -68 -124 -27 -20 -41 -21 -467 -24 l-440 -3 -41 23 c-101
57 -102 193 -2 254 l39 24 442 -2 c428 -3 442 -4 469 -24z m950 10 c108 -52
108 -211 0 -263 -53 -26 -79 -26 -131 -1 -56 27 -89 86 -83 145 12 105 118
164 214 119z m640 0 c108 -52 108 -211 0 -263 -53 -26 -79 -26 -131 -1 -56 27
-89 86 -83 145 12 105 118 164 214 119z"/>
<path d="M870 670 c0 -532 1 -552 20 -590 13 -26 34 -47 60 -60 39 -20 55 -20
1610 -20 1555 0 1571 0 1610 20 26 13 47 34 60 60 19 38 20 58 20 590 l0 550
-1690 0 -1690 0 0 -550z m1366 104 c50 -37 68 -70 68 -124 0 -54 -18 -87 -68
-124 -27 -20 -41 -21 -467 -24 l-440 -3 -41 23 c-101 57 -102 193 -2 254 l39
24 442 -2 c428 -3 442 -4 469 -24z m954 6 c45 -23 80 -80 80 -130 0 -76 -74
-150 -151 -150 -46 0 -108 39 -130 82 -37 72 -14 151 57 194 48 29 92 30 144
4z m640 0 c45 -23 80 -80 80 -130 0 -76 -74 -150 -151 -150 -46 0 -108 39
-130 82 -37 72 -14 151 57 194 48 29 92 30 144 4z"/>
</g>
</svg>
