<?xml version="1.0" standalone="no"?>
<!DOCTYPE svg PUBLIC "-//W3C//DTD SVG 20010904//EN"
 "http://www.w3.org/TR/2001/REC-SVG-20010904/DTD/svg10.dtd">
<svg version="1.0" xmlns="http://www.w3.org/2000/svg"
 width="512.000000pt" height="512.000000pt" viewBox="0 0 512.000000 512.000000"
 preserveAspectRatio="xMidYMid meet">

<g transform="translate(0.000000,512.000000) scale(0.100000,-0.100000)"
fill="#000000" stroke="none">
<path d="M1050 4111 c-147 -48 -224 -198 -175 -342 48 -141 212 -210 353 -149
120 52 180 190 140 322 -15 50 -79 123 -131 150 -45 22 -145 33 -187 19z"/>
<path d="M3930 4111 c-80 -26 -157 -100 -178 -169 -29 -96 -2 -212 64 -274 78
-73 202 -91 299 -43 192 94 193 368 0 467 -43 22 -144 33 -185 19z"/>
<path d="M461 3671 c-19 -19 -21 -33 -21 -163 0 -284 30 -1404 39 -1453 32
-176 145 -328 297 -400 52 -25 132 -47 217 -60 l37 -6 0 -99 0 -100 65 0 65 0
0 100 0 100 229 2 230 3 -33 75 -33 75 -309 5 c-262 5 -316 8 -354 23 -153 60
-236 164 -260 325 -5 37 -17 398 -25 802 -15 676 -18 737 -34 760 -24 34 -82
39 -110 11z"/>
<path d="M4551 3664 c-13 -16 -21 -41 -21 -63 1 -197 -32 -1443 -40 -1498 -22
-164 -105 -269 -260 -330 -38 -15 -92 -18 -354 -23 l-309 -5 -33 -75 -33 -75
230 -3 229 -2 0 -100 0 -100 65 0 65 0 0 100 0 99 38 6 c145 23 253 66 334
135 85 73 157 203 179 325 8 49 39 1172 39 1453 0 129 -2 144 -20 162 -30 30
-83 27 -109 -6z"/>
<path d="M1021 3449 c-83 -17 -175 -124 -222 -256 -24 -68 -24 -70 -27 -553
-4 -534 -1 -568 50 -626 61 -70 58 -69 403 -66 237 2 316 0 334 -10 25 -13 97
-164 252 -525 71 -164 75 -167 191 -161 194 10 234 116 134 359 -26 63 -95
231 -153 374 -58 143 -112 272 -119 287 -26 50 -64 61 -229 67 -141 6 -153 8
-197 34 -48 28 -83 67 -110 122 -29 59 -30 96 -1 218 l27 118 -162 162 c-112
112 -162 169 -162 184 0 30 42 58 67 44 10 -5 88 -80 173 -165 l155 -156 272
0 271 0 12 35 c20 61 -3 111 -68 144 -12 7 -80 16 -150 21 -212 15 -305 56
-461 204 -53 51 -112 101 -131 113 -46 28 -106 41 -149 32z"/>
<path d="M4019 3446 c-59 -15 -95 -41 -204 -146 -150 -143 -248 -186 -456
-200 -69 -4 -137 -13 -150 -20 -66 -34 -89 -83 -69 -145 l12 -35 271 0 272 0
155 156 c85 85 163 160 173 165 25 14 67 -14 67 -44 0 -15 -50 -72 -162 -184
l-162 -162 28 -119 c30 -134 28 -168 -18 -246 -57 -98 -124 -127 -311 -134
-152 -5 -186 -15 -209 -60 -7 -15 -66 -155 -129 -312 -64 -157 -132 -325 -153
-375 -64 -156 -56 -262 25 -309 42 -24 177 -34 220 -16 24 10 36 27 62 88 57
139 250 566 260 579 8 9 95 13 337 15 358 3 359 4 417 66 54 57 56 85 53 624
-3 492 -3 493 -27 561 -31 87 -96 184 -147 220 -53 37 -99 47 -155 33z"/>
<path d="M1550 2705 l0 -85 1000 0 1000 0 0 85 0 85 -1000 0 -1000 0 0 -85z"/>
<path d="M2460 1885 l0 -635 100 0 100 0 0 635 0 635 -100 0 -100 0 0 -635z"/>
<path d="M949 1277 c-133 -38 -235 -153 -247 -278 l-5 -49 398 0 398 0 -6 49
c-12 105 -93 212 -196 259 -49 23 -72 26 -176 29 -76 2 -137 -2 -166 -10z"/>
<path d="M3887 1280 c-130 -33 -239 -153 -254 -281 l-6 -49 398 0 398 0 -5 49
c-10 103 -82 202 -185 253 -62 30 -73 32 -187 35 -67 1 -138 -2 -159 -7z"/>
</g>
</svg>
