<?xml version="1.0" standalone="no"?>
<!DOCTYPE svg PUBLIC "-//W3C//DTD SVG 20010904//EN"
 "http://www.w3.org/TR/2001/REC-SVG-20010904/DTD/svg10.dtd">
<svg version="1.0" xmlns="http://www.w3.org/2000/svg"
 width="512.000000pt" height="512.000000pt" viewBox="0 0 512.000000 512.000000"
 preserveAspectRatio="xMidYMid meet">

<g transform="translate(0.000000,512.000000) scale(0.100000,-0.100000)"
fill="#000000" stroke="none">
<path d="M2547 5025 c-227 -43 -419 -146 -574 -308 -43 -45 -95 -108 -116
-139 -21 -32 -42 -58 -46 -58 -5 0 -28 7 -52 17 -65 24 -246 24 -319 -1 -197
-67 -335 -213 -383 -405 l-14 -54 -54 -14 c-192 -48 -339 -187 -405 -383 -26
-76 -26 -244 0 -320 64 -189 210 -331 388 -377 l68 -17 -2 -406 -3 -405 -59
-7 c-137 -17 -309 -83 -433 -165 -32 -21 -93 -71 -136 -112 -337 -321 -422
-803 -215 -1215 53 -107 88 -156 177 -249 126 -132 257 -216 426 -274 313
-107 687 -44 952 160 76 58 188 177 236 250 82 124 148 296 165 433 l7 59 162
3 162 2 3 -328 3 -328 37 -76 c45 -91 103 -147 196 -191 l67 -32 975 0 975 0
67 32 c93 44 151 100 196 191 l37 76 0 1296 0 1296 -37 76 c-45 91 -103 147
-196 191 -64 30 -74 32 -213 35 l-147 4 38 74 c57 111 75 196 74 339 -1 139
-26 233 -91 345 -49 83 -180 214 -263 263 -130 75 -327 114 -458 89 l-52 -9
-40 80 c-139 278 -377 467 -690 549 -102 26 -308 33 -413 13z m328 -160 c232
-41 442 -177 571 -371 53 -79 103 -187 124 -265 6 -22 17 -39 24 -39 7 0 39 9
72 20 191 66 417 13 562 -130 71 -71 105 -124 139 -218 64 -177 24 -397 -98
-535 l-40 -46 -722 -3 -722 -3 -66 -31 c-36 -18 -88 -53 -115 -78 l-48 -47
-766 3 -765 3 -65 31 c-95 46 -153 101 -197 192 -36 72 -38 81 -38 172 0 91 2
100 37 172 70 140 187 216 347 226 l88 5 5 89 c5 76 11 100 42 162 43 88 102
146 194 189 61 29 76 32 163 32 95 0 98 -1 184 -45 49 -25 92 -46 96 -48 4 -2
27 36 51 83 176 354 556 547 943 480z m1839 -1757 c55 -16 138 -99 154 -154
17 -60 17 -2488 0 -2548 -16 -55 -99 -138 -154 -154 -59 -17 -1849 -17 -1908
0 -55 16 -138 99 -154 154 -17 60 -17 2488 0 2548 15 51 99 137 148 153 53 16
1858 17 1914 1z m-2228 -164 c-3 -9 -6 -405 -6 -880 l0 -864 -162 2 -163 3 -7
59 c-49 389 -354 742 -736 851 -48 14 -114 29 -147 33 l-60 7 -3 403 -2 402
646 0 c585 0 646 -1 640 -16z m-1317 -958 c38 -20 96 -86 125 -145 21 -40 66
-149 66 -158 0 -2 -108 -3 -240 -3 -132 0 -240 1 -240 3 0 9 45 118 65 158 45
88 122 159 173 159 13 0 35 -6 51 -14z m-380 -105 c-16 -33 -40 -90 -53 -128
l-23 -68 -131 -3 c-73 -1 -132 1 -132 6 0 10 69 76 133 127 48 39 202 124 224
125 7 0 -1 -25 -18 -59z m739 14 c86 -44 221 -149 250 -193 l15 -23 -133 3
-133 3 -23 68 c-13 38 -37 95 -53 128 -16 32 -25 59 -19 59 5 0 49 -20 96 -45z
m-858 -392 c0 -10 -4 -47 -9 -83 -5 -36 -12 -100 -16 -142 l-7 -78 -197 0
-198 0 9 58 c10 69 21 106 56 194 l27 68 168 0 c152 0 167 -2 167 -17z m734 0
c6 -23 23 -148 31 -235 l7 -68 -322 0 -322 0 7 68 c8 87 25 212 31 235 5 16
27 17 284 17 257 0 279 -1 284 -17z m528 -51 c35 -88 46 -125 56 -194 l9 -58
-198 0 -197 0 -7 68 c-3 37 -10 103 -15 146 -6 44 -10 85 -10 93 0 10 34 13
168 13 l167 0 27 -68z m-1287 -489 c4 -43 11 -107 16 -143 15 -111 32 -100
-159 -100 l-169 0 -26 68 c-35 92 -45 128 -55 195 l-9 57 198 0 197 0 7 -77z
m790 10 c-8 -88 -25 -213 -31 -235 -5 -17 -27 -18 -284 -18 -257 0 -279 1
-284 18 -6 22 -23 147 -31 235 l-7 67 322 0 322 0 -7 -67z m553 10 c-10 -70
-21 -107 -56 -195 l-27 -68 -167 0 c-191 0 -174 -11 -159 100 5 36 12 100 16
143 l7 77 197 0 198 0 -9 -57z m-1252 -496 c13 -38 37 -95 53 -128 16 -32 25
-59 20 -59 -21 0 -168 81 -219 120 -67 52 -140 121 -140 132 0 5 59 7 132 6
l131 -3 23 -68z m624 69 c0 -12 -61 -151 -83 -189 -31 -52 -97 -114 -132 -123
-80 -20 -167 67 -236 238 -16 38 -29 72 -29 74 0 2 108 4 240 4 132 0 240 -2
240 -4z m418 -18 c-29 -44 -164 -149 -250 -193 -47 -25 -91 -45 -96 -45 -6 0
5 30 23 68 18 37 40 92 50 122 10 30 20 58 22 63 2 4 63 7 135 7 l130 0 -14
-22z"/>
<path d="M2594 4709 c-71 -12 -173 -50 -241 -90 -101 -61 -265 -232 -247 -260
2 -5 32 -24 66 -43 l61 -34 43 58 c44 58 119 122 183 155 102 52 247 76 348
57 l53 -9 11 41 c5 22 14 56 19 75 5 19 8 36 6 38 -2 2 -30 8 -62 13 -69 12
-168 11 -240 -1z"/>
<path d="M3057 4583 c-38 -60 -58 -103 -49 -103 4 0 37 -24 73 -53 l65 -54 57
52 58 52 -61 56 c-34 32 -74 64 -90 72 -29 15 -30 15 -53 -22z"/>
<path d="M3840 4004 l0 -79 51 -12 c90 -22 160 -92 182 -182 l12 -51 79 0 79
0 -7 53 c-9 74 -66 186 -122 236 -55 52 -151 98 -221 107 l-53 7 0 -79z"/>
<path d="M1040 3747 c-19 -6 -58 -34 -85 -62 -71 -70 -91 -145 -63 -239 16
-55 99 -138 154 -154 28 -8 126 -12 298 -12 l256 0 0 80 0 80 -255 0 -256 0
-24 25 c-16 15 -25 36 -25 55 0 33 38 80 65 80 12 0 15 15 15 80 0 90 -2 91
-80 67z"/>
<path d="M1760 3360 l0 -80 80 0 80 0 0 80 0 80 -80 0 -80 0 0 -80z"/>
<path d="M2895 2946 c-41 -18 -83 -69 -90 -109 -3 -18 -4 -550 -3 -1184 3
-1145 3 -1152 24 -1179 11 -15 33 -37 48 -48 27 -21 34 -21 886 -21 852 0 859
0 886 21 15 11 37 33 48 48 21 27 21 31 21 1206 0 1175 0 1179 -21 1206 -11
15 -33 37 -48 48 -27 21 -36 21 -874 23 -689 2 -853 0 -877 -11z m1665 -466
l0 -320 -800 0 -800 0 0 320 0 320 800 0 800 0 0 -320z m0 -800 l0 -320 -800
0 -800 0 0 320 0 320 800 0 800 0 0 -320z m0 -800 l0 -320 -800 0 -800 0 0
320 0 320 800 0 800 0 0 -320z"/>
<path d="M3120 2480 l0 -160 80 0 80 0 0 160 0 160 -80 0 -80 0 0 -160z"/>
<path d="M3440 2480 l0 -160 80 0 80 0 0 160 0 160 -80 0 -80 0 0 -160z"/>
<path d="M3760 2480 l0 -160 80 0 80 0 0 160 0 160 -80 0 -80 0 0 -160z"/>
<path d="M3600 1680 l0 -160 80 0 80 0 0 160 0 160 -80 0 -80 0 0 -160z"/>
<path d="M3920 1680 l0 -160 80 0 80 0 0 160 0 160 -80 0 -80 0 0 -160z"/>
<path d="M4240 1680 l0 -160 80 0 80 0 0 160 0 160 -80 0 -80 0 0 -160z"/>
<path d="M3120 880 l0 -160 80 0 80 0 0 160 0 160 -80 0 -80 0 0 -160z"/>
<path d="M3440 880 l0 -160 80 0 80 0 0 160 0 160 -80 0 -80 0 0 -160z"/>
<path d="M3760 880 l0 -160 80 0 80 0 0 160 0 160 -80 0 -80 0 0 -160z"/>
</g>
</svg>
