<?xml version="1.0" standalone="no"?>
<!DOCTYPE svg PUBLIC "-//W3C//DTD SVG 20010904//EN"
 "http://www.w3.org/TR/2001/REC-SVG-20010904/DTD/svg10.dtd">
<svg version="1.0" xmlns="http://www.w3.org/2000/svg"
 width="512.000000pt" height="512.000000pt" viewBox="0 0 512.000000 512.000000"
 preserveAspectRatio="xMidYMid meet">

<g transform="translate(0.000000,512.000000) scale(0.100000,-0.100000)"
fill="#000000" stroke="none">
<path d="M2315 5109 c-800 -83 -1501 -518 -1927 -1196 -487 -774 -516 -1777
-75 -2578 200 -364 487 -676 841 -913 238 -159 600 -311 876 -366 214 -43 295
-51 530 -51 236 0 333 10 532 51 879 183 1616 843 1897 1699 93 282 126 493
126 805 0 301 -32 513 -116 775 -124 390 -330 728 -622 1024 -399 404 -893
653 -1462 737 -123 18 -478 26 -600 13z m775 -1259 c165 -11 271 -35 375 -85
196 -95 312 -254 367 -505 22 -103 22 -118 22 -700 0 -582 0 -597 -22 -700
-55 -251 -171 -410 -367 -505 -175 -84 -351 -100 -1040 -92 -502 6 -551 10
-693 60 -104 36 -177 82 -252 158 -78 79 -123 151 -161 261 -50 147 -54 212
-54 833 0 498 3 582 18 663 41 221 139 382 293 482 121 79 249 117 434 130
171 11 913 11 1080 0z"/>
<path d="M2100 3620 c-85 -4 -186 -15 -223 -24 -190 -45 -307 -160 -352 -348
-45 -185 -45 -1191 0 -1376 45 -185 162 -303 347 -347 185 -45 1191 -45 1376
0 184 44 303 163 347 347 45 185 45 1191 0 1376 -44 184 -163 303 -347 347
-125 30 -744 43 -1148 25z m1238 -237 c49 -37 67 -71 67 -128 0 -116 -116
-189 -221 -139 -61 29 -97 109 -80 178 8 34 54 86 91 102 39 18 110 12 143
-13z m-579 -188 c209 -67 368 -226 438 -440 22 -67 26 -98 26 -195 0 -97 -4
-128 -26 -195 -71 -215 -227 -371 -442 -442 -67 -22 -98 -26 -195 -26 -134 0
-229 26 -339 90 -84 49 -186 152 -234 233 -65 112 -90 206 -90 340 0 97 4 128
26 195 67 205 216 360 414 432 134 49 284 51 422 8z"/>
<path d="M2426 2970 c-274 -87 -385 -427 -216 -663 169 -235 531 -235 700 0
137 192 93 467 -97 603 -108 77 -260 101 -387 60z"/>
</g>
</svg>
