<?xml version="1.0" standalone="no"?>
<!DOCTYPE svg PUBLIC "-//W3C//DTD SVG 20010904//EN"
 "http://www.w3.org/TR/2001/REC-SVG-20010904/DTD/svg10.dtd">
<svg version="1.0" xmlns="http://www.w3.org/2000/svg"
 width="512.000000pt" height="512.000000pt" viewBox="0 0 512.000000 512.000000"
 preserveAspectRatio="xMidYMid meet">

<g transform="translate(0.000000,512.000000) scale(0.100000,-0.100000)"
fill="#000000" stroke="none">
<path d="M3192 4673 c-11 -10 -39 -68 -62 -130 l-42 -111 -91 -32 c-50 -17
-121 -47 -159 -66 -37 -19 -73 -34 -80 -34 -7 0 -58 20 -112 45 -55 25 -113
45 -130 45 -27 0 -54 -23 -199 -168 -143 -143 -167 -172 -166 -197 0 -17 21
-77 48 -135 l47 -105 -42 -90 c-24 -49 -54 -124 -68 -165 l-25 -75 -113 -43
c-62 -24 -121 -52 -130 -64 -16 -18 -18 -46 -18 -257 0 -281 -11 -257 145
-316 55 -21 105 -42 111 -46 5 -5 21 -43 34 -84 25 -80 62 -125 102 -125 24 0
78 52 78 75 0 20 -56 200 -73 235 -10 18 -39 35 -125 68 l-112 44 0 151 0 152
105 39 c57 21 111 46 119 55 8 9 31 65 50 124 19 59 58 151 86 204 27 54 50
102 50 109 0 6 -20 57 -45 113 -25 56 -45 107 -45 114 0 6 46 57 101 113 l102
102 81 -35 c171 -75 141 -73 263 -11 60 31 153 70 208 88 55 17 107 38 115 46
8 8 33 60 55 117 l41 102 153 0 153 0 43 -109 c23 -60 49 -112 56 -117 8 -5
58 -22 111 -39 53 -17 146 -55 207 -86 125 -63 109 -63 247 1 l92 43 107 -108
107 -107 -46 -106 c-25 -58 -46 -113 -46 -121 0 -8 23 -59 50 -113 28 -54 65
-143 82 -198 17 -55 40 -110 52 -122 12 -12 66 -39 121 -60 l100 -39 3 -151 3
-151 -111 -42 c-60 -24 -114 -48 -119 -54 -6 -7 -26 -61 -46 -121 -19 -60 -58
-151 -85 -203 -28 -52 -50 -102 -50 -111 0 -9 21 -65 47 -124 l47 -108 -106
-106 -106 -106 -105 46 c-57 26 -113 47 -124 47 -11 0 -66 -24 -124 -53 -57
-29 -138 -63 -179 -76 -139 -41 -139 -41 -188 -169 l-44 -113 -150 3 -151 3
-37 95 c-55 143 -47 134 -161 170 -55 17 -149 56 -207 86 -59 29 -117 54 -128
54 -12 0 -56 -16 -98 -35 -80 -37 -103 -64 -92 -111 15 -58 67 -75 135 -45
l49 21 93 -45 c52 -24 126 -54 165 -66 l71 -22 43 -114 c28 -75 52 -121 68
-134 23 -18 42 -19 253 -19 274 0 257 -9 319 156 l41 111 72 22 c40 13 114 43
165 67 l93 43 115 -50 c85 -37 123 -49 142 -44 29 7 316 285 338 327 20 39 19
48 -35 168 l-50 110 44 93 c25 50 55 125 67 164 l22 73 104 40 c57 22 108 40
112 40 5 0 18 12 29 26 20 25 21 39 21 250 0 145 -4 232 -11 248 -12 24 -38
38 -193 98 l-58 23 -33 93 c-19 51 -49 124 -69 162 l-35 70 49 114 c28 62 50
124 50 137 0 17 -47 70 -168 191 -141 142 -172 168 -197 168 -17 0 -78 -21
-137 -47 l-107 -46 -88 41 c-48 22 -122 52 -163 65 l-75 25 -48 119 c-26 65
-55 124 -64 131 -12 9 -80 12 -254 12 -211 0 -239 -2 -257 -17z"/>
<path d="M3287 3965 c-94 -18 -210 -62 -297 -112 -94 -55 -254 -218 -309 -316
-150 -267 -158 -568 -22 -842 108 -217 289 -371 531 -451 80 -27 95 -28 260
-28 172 -1 176 0 270 32 280 98 484 300 570 569 158 490 -124 1005 -619 1134
-102 27 -281 33 -384 14z m348 -170 c228 -61 426 -247 500 -469 159 -476 -187
-957 -689 -956 -159 0 -281 38 -413 128 -132 90 -247 257 -290 422 -23 88 -23
263 1 350 74 276 286 476 566 536 80 17 241 11 325 -11z"/>
<path d="M3563 3188 l-223 -222 -118 117 c-102 100 -123 117 -151 117 -37 0
-81 -38 -81 -70 0 -39 28 -75 167 -211 138 -136 165 -156 206 -145 12 3 139
122 282 265 245 246 259 262 259 297 0 46 -31 74 -82 74 -34 0 -51 -15 -259
-222z"/>
<path d="M1320 3119 c-207 -35 -315 -201 -297 -458 12 -165 64 -295 152 -385
117 -119 266 -145 414 -74 97 47 190 175 226 313 36 135 29 317 -15 419 -26
63 -91 130 -148 154 -89 38 -215 50 -332 31z m270 -180 c54 -31 80 -87 87
-187 11 -153 -35 -302 -115 -374 -37 -33 -93 -58 -132 -58 -40 0 -96 25 -135
61 -136 126 -155 479 -28 552 75 43 251 46 323 6z"/>
<path d="M2355 2526 c-34 -16 -110 -81 -240 -205 -104 -100 -208 -192 -230
-204 -39 -22 -50 -22 -505 -27 l-465 -5 -69 -33 c-64 -30 -100 -62 -392 -353
-217 -216 -331 -337 -349 -370 -117 -215 92 -461 326 -384 47 16 74 38 212
173 l157 156 0 -381 c0 -392 4 -434 40 -453 12 -6 230 -10 573 -10 l554 0 21
23 c22 23 22 24 22 520 l0 496 335 322 c361 347 376 365 383 470 15 204 -192
351 -373 265z m181 -170 c28 -28 34 -41 34 -77 0 -42 -3 -46 -127 -169 -71
-69 -233 -227 -361 -350 l-232 -225 0 -472 0 -473 -440 0 -440 0 0 439 c0 301
-4 448 -11 471 -14 40 -60 63 -99 48 -14 -5 -124 -108 -245 -229 -241 -240
-256 -250 -323 -215 -55 28 -76 91 -48 144 8 15 158 169 333 343 267 265 325
317 359 327 29 8 169 12 457 12 440 0 485 4 570 47 40 20 380 328 403 364 13
22 70 49 103 49 24 0 42 -9 67 -34z"/>
</g>
</svg>
