<?xml version="1.0" standalone="no"?>
<!DOCTYPE svg PUBLIC "-//W3C//DTD SVG 20010904//EN"
 "http://www.w3.org/TR/2001/REC-SVG-20010904/DTD/svg10.dtd">
<svg version="1.0" xmlns="http://www.w3.org/2000/svg"
 width="512.000000pt" height="512.000000pt" viewBox="0 0 512.000000 512.000000"
 preserveAspectRatio="xMidYMid meet">

<g transform="translate(0.000000,512.000000) scale(0.100000,-0.100000)"
fill="#000000" stroke="none">
<path d="M3369 4894 c-25 -66 -25 -67 -79 -84 -30 -9 -76 -27 -102 -40 l-47
-24 -63 27 -62 27 -78 -78 -78 -78 26 -62 27 -62 -30 -67 c-17 -38 -36 -84
-42 -104 -10 -32 -18 -38 -77 -58 l-65 -23 3 -111 3 -110 63 -26 63 -26 24
-68 c13 -38 31 -79 39 -92 21 -32 20 -43 -10 -110 l-25 -58 77 -78 77 -77 64
29 64 29 52 -27 c29 -14 74 -33 100 -42 46 -16 50 -20 76 -81 l27 -65 108 0
108 0 25 66 24 66 57 17 c31 10 77 29 101 42 l43 24 67 -30 66 -29 76 76 77
75 -15 37 c-8 20 -22 49 -30 65 -14 26 -13 32 10 75 14 25 33 72 43 103 l17
56 66 25 66 24 0 109 0 109 -65 26 c-64 25 -65 26 -86 85 -11 32 -31 78 -42
101 l-22 42 29 64 29 64 -77 77 -78 77 -58 -25 c-67 -30 -78 -31 -109 -11 -12
8 -54 26 -92 39 l-69 24 -27 64 -27 63 -109 3 -109 3 -24 -67z m191 -365 c275
-44 410 -356 253 -587 -127 -187 -398 -217 -566 -63 -89 83 -138 224 -117 339
29 157 155 286 307 312 26 4 50 8 53 9 3 0 34 -4 70 -10z"/>
<path d="M2162 4863 c-43 -21 -79 -64 -92 -111 -6 -24 -10 -326 -10 -864 l0
-828 215 0 215 0 0 838 c0 792 -1 839 -19 877 -21 46 -54 79 -94 94 -44 17
-177 13 -215 -6z"/>
<path d="M474 4451 c-99 -24 -198 -105 -242 -199 l-27 -57 0 -1350 0 -1350 28
-57 c35 -72 119 -149 195 -180 l57 -23 668 -3 667 -3 0 -284 0 -285 -272 0
c-371 0 -439 -13 -527 -103 -57 -57 -71 -110 -71 -269 l0 -128 1610 0 1610 0
0 128 c0 159 -14 212 -71 269 -88 90 -156 103 -526 103 l-273 0 0 285 0 285
643 0 c692 0 712 2 799 53 57 33 117 99 148 162 l25 50 0 1350 0 1350 -26 55
c-33 70 -104 141 -177 177 -55 26 -64 28 -236 31 -206 5 -217 -2 -91 -52 l80
-32 3 -107 3 -107 52 0 c31 0 62 -6 75 -16 l22 -15 0 -1140 0 -1139 -2060 0
-2060 0 0 1139 0 1140 22 15 c20 14 103 16 700 16 l678 0 0 150 0 150 -697 -1
c-384 -1 -712 -4 -729 -8z"/>
<path d="M824 3890 c-28 -11 -54 -48 -54 -78 0 -12 11 -34 25 -47 l24 -25 461
0 c276 0 469 4 479 10 31 16 45 64 29 96 -25 53 -28 54 -503 53 -242 0 -450
-4 -461 -9z"/>
<path d="M792 3547 c-40 -42 -24 -105 32 -127 39 -14 872 -14 915 1 53 19 69
85 31 127 l-21 22 -468 0 -468 0 -21 -23z"/>
<path d="M792 3227 c-32 -34 -30 -89 5 -117 26 -20 32 -21 491 -18 l464 3 19
24 c26 32 24 77 -6 106 l-24 25 -464 0 -464 0 -21 -23z"/>
<path d="M3609 3020 c-9 -5 -21 -22 -27 -37 -18 -45 -212 -779 -212 -800 0
-36 38 -73 75 -73 65 0 67 4 180 425 58 215 105 405 105 423 0 42 -30 72 -72
72 -18 0 -40 -5 -49 -10z"/>
<path d="M797 2910 c-38 -30 -38 -90 -1 -119 26 -21 36 -21 486 -21 l459 0 24
25 c30 29 32 74 6 106 l-19 24 -464 3 c-459 3 -465 2 -491 -18z"/>
<path d="M3034 2779 c-98 -83 -185 -164 -193 -179 -11 -23 -12 -34 -2 -57 14
-31 344 -313 383 -327 61 -22 122 37 99 95 -5 15 -70 77 -143 139 -73 62 -133
116 -133 121 0 4 61 60 136 123 88 74 139 124 143 141 7 29 -15 79 -39 89 -50
19 -70 7 -251 -145z"/>
<path d="M3802 2907 c-27 -28 -29 -77 -4 -105 9 -10 72 -66 140 -122 67 -56
122 -106 122 -110 0 -4 -60 -57 -134 -119 -74 -62 -137 -120 -140 -128 -21
-55 15 -113 70 -113 24 0 67 31 217 157 114 95 190 166 193 180 13 49 -5 70
-192 227 -156 131 -191 156 -218 156 -21 0 -40 -8 -54 -23z"/>
<path d="M2074 2883 c6 -15 137 -244 186 -326 l17 -27 93 162 c52 90 100 173
108 186 l14 22 -212 0 c-197 0 -212 -1 -206 -17z"/>
<path d="M821 2599 c-54 -21 -69 -89 -28 -127 23 -22 25 -22 488 -22 l466 0
21 23 c22 23 28 60 16 92 -17 43 -40 45 -501 44 -256 0 -448 -4 -462 -10z"/>
<path d="M795 2255 c-32 -31 -32 -66 -1 -102 l24 -28 854 -2 c922 -3 890 -5
916 51 16 32 2 80 -29 96 -11 6 -347 10 -879 10 l-861 0 -24 -25z"/>
</g>
</svg>
